{
  "accessors": [
    {
      "bufferView": 1,
      "componentType": 5126,
      "count": 528,
      "max": [
        0.8864399790763855,
        0.73506700992584229,
        0.10274799913167953
      ],
      "min": [
        -0.88608497381210327,
        -1.1667129993438721,
        -1.7280089855194092
      ],
      "type": "VEC3"
    },
    {
      "bufferView": 1,
      "byteOffset": 6336,
      "componentType": 5126,
      "count": 528,
      "max": [
        1,
        1,
        1
      ],
      "min": [
        -1,
        -1,
        -1
      ],
      "type": "VEC3"
    },
    {
      "bufferView": 0,
      "componentType": 5125,
      "count": 3108,
      "max": [
        527
      ],
      "min": [
        0
      ],
      "type": "SCALAR"
    },
    {
      "bufferView": 1,
      "byteOffset": 12672,
      "componentType": 5126,
      "count": 1549,
      "max": [
        1.1060550212860107,
        0.89633297920227051,
        1.5644429922103882
      ],
      "min": [
        -1.1057000160217285,
        -1.2412049770355225,
        -0.91528099775314331
      ],
      "type": "VEC3"
    },
    {
      "bufferView": 1,
      "byteOffset": 31260,
      "componentType": 5126,
      "count": 1549,
      "max": [
        1,
        1,
        1
      ],
      "min": [
        -1,
        -1,
        -1
      ],
      "type": "VEC3"
    },
    {
      "bufferView": 0,
      "byteOffset": 12432,
      "componentType": 5125,
      "count": 9183,
      "max": [
        1548
      ],
      "min": [
        0
      ],
      "type": "SCALAR"
    },
    {
      "bufferView": 1,
      "byteOffset": 49848,
      "componentType": 5126,
      "count": 16136,
      "max": [
        1.1109499931335449,
        0.83510899543762207,
        1.5550700426101685
      ],
      "min": [
        -1.1105890274047852,
        -1.1895120143890381,
        -0.85439002513885498
      ],
      "type": "VEC3"
    },
    {
      "bufferView": 1,
      "byteOffset": 243480,
      "componentType": 5126,
      "count": 16136,
      "max": [
        1,
        0.99996852874755859,
        1
      ],
      "min": [
        -1,
        -1,
        -1
      ],
      "type": "VEC3"
    },
    {
      "bufferView": 0,
      "byteOffset": 49164,
      "componentType": 5125,
      "count": 96768,
      "max": [
        16135
      ],
      "min": [
        0
      ],
      "type": "SCALAR"
    }
  ],
  "asset": {
    "extras": {
      "author": "ministephen (https://sketchfab.com/ministephen)",
      "license": "CC-BY-4.0 (http://creativecommons.org/licenses/by/4.0/)",
      "source": "https://sketchfab.com/models/9e015597ad30450991d6ee1008c0eb34",
      "title": "Seat"
    },
    "generator": "Sketchfab-3.22.5",
    "version": "2.0"
  },
  "bufferViews": [
    {
      "buffer": 0,
      "byteLength": 436236,
      "byteOffset": 0,
      "name": "floatBufferViews",
      "target": 34963
    },
    {
      "buffer": 0,
      "byteLength": 437112,
      "byteOffset": 436236,
      "byteStride": 12,
      "name": "floatBufferViews",
      "target": 34962
    }
  ],
  "buffers": [
    {
      "byteLength": 873348,
      "uri": "scene.bin"
    }
  ],
  "materials": [
    {
      "doubleSided": true,
      "emissiveFactor": [
        0,
        0,
        0
      ],
      "name": "metal",
      "pbrMetallicRoughness": {
        "baseColorFactor": [
          0.11036585363200001,
          0.11036585363200001,
          0.11036585363200001,
          1
        ],
        "metallicFactor": 1,
        "roughnessFactor": 0.20560213409999994
      }
    },
    {
      "doubleSided": true,
      "emissiveFactor": [
        0,
        0,
        0
      ],
      "name": "plastic",
      "pbrMetallicRoughness": {
        "baseColorFactor": [
          0.82867958877896364,
          0.77100287137630086,
          0.664217819003315,
          1
        ],
        "metallicFactor": 0,
        "roughnessFactor": 0.69950457320000003
      }
    },
    {
      "doubleSided": true,
      "emissiveFactor": [
        0,
        0,
        0
      ],
      "name": "puffy_parts",
      "pbrMetallicRoughness": {
        "baseColorFactor": [
          0,
          0.045789152800000003,
          0.24828027019999999,
          1
        ],
        "metallicFactor": 0.16025152440000001,
        "roughnessFactor": 0.34584603660000002
      }
    }
  ],
  "meshes": [
    {
      "primitives": [
        {
          "attributes": {
            "NORMAL": 1,
            "POSITION": 0
          },
          "indices": 2,
          "material": 0,
          "mode": 4
        }
      ]
    },
    {
      "primitives": [
        {
          "attributes": {
            "NORMAL": 4,
            "POSITION": 3
          },
          "indices": 5,
          "material": 1,
          "mode": 4
        }
      ]
    },
    {
      "primitives": [
        {
          "attributes": {
            "NORMAL": 7,
            "POSITION": 6
          },
          "indices": 8,
          "material": 2,
          "mode": 4
        }
      ]
    }
  ],
  "nodes": [
    {
      "children": [
        1
      ],
      "name": "RootNode (gltf orientation matrix)",
      "rotation": [
        -0.70710678118654746,
        -0,
        -0,
        0.70710678118654757
      ]
    },
    {
      "children": [
        2
      ],
      "name": "RootNode (model correction matrix)"
    },
    {
      "children": [
        3,
        4,
        5
      ],
      "name": "seat.obj.cleaner.materialmerger.gles"
    },
    {
      "mesh": 0,
      "name": ""
    },
    {
      "mesh": 1,
      "name": ""
    },
    {
      "mesh": 2,
      "name": ""
    }
  ],
  "scene": 0,
  "scenes": [
    {
      "name": "OSG_Scene",
      "nodes": [
        0
      ]
    }
  ]
}

